PathFileType	4	(X/Y/Z)	C:/Users/beibeiliu/ov580/test_trc\sequence.28_training_dense_right.trc
DataRate	CameraRate	NumFrames	NumMarkers	Units	OrigDataRate	OrigDataStartFrame	OrigNumFrames
120	120	16	19	mm	120	250	333
Frame#	Time	ThumbCMC			ThumbMCP			ThumbIP			ThumbTip			IndexMCP			IndexPIP			IndexTip			MiddleMCP			MiddlePIP			MiddleTip			RingMCP			RingPIP			RingTip			PinkyMCP			PinkyPIP			PinkyTip			BackHand1			BackHand2			BackHand3	
		X0	Y0	Z0	X1	Y1	Z1	X2	Y2	Z2	X3	Y3	Z3	X4	Y4	Z4	X5	Y5	Z5	X6	Y6	Z6	X7	Y7	Z7	X8	Y8	Z8	X9	Y9	Z9	X10	Y10	Z10	X11	Y11	Z11	X12	Y12	Z12	X13	Y13	Z13	X14	Y14	Z14	X15	Y15	Z15	X16	Y16	Z16	X17	Y17	Z17	X18	Y18	Z18	
249	2.075	170.3	53.561	33.1992	163.012	43.1894	-1.50291	167.694	35.7673	-21.4296	182.175	22.2677	-41.2558	204.044	82.4688	-19.466	208.768	87.9012	-38.4471	217.689	91.7246	-56.1656	206.792	52.2689	-30.4385	187.165	32.9539	-33.4286	184.233	35.4258	1.45582	208.765	35.0252	-21.7977	190.271	19.8826	-12.5766	189.923	29.0609	14.5957	216.772	25.3998	-10.4696	199.678	11.4589	-2.52291	197.518	27.7974	21.1879	222.433	54.7502	26.5022	216.224	47.2686	55.1762	203.336	66.5068	38.7764	
250	2.08333	172.897	62.7962	27.7999	159.742	50.797	0.173878	163.206	41.9618	-24.263	175.496	26.4199	-38.4138	209.647	82.3198	-23.5801	216.809	80.5987	-39.7198	222.035	84.7347	-59.8581	207.388	52.6815	-28.4603	185.048	33.8547	-32.8975	181.846	39.2457	-0.853616	210.328	32.3307	-19.2229	185.774	21.3398	-14.4318	187.055	31.5355	14.7437	213.218	20.304	-11.1285	189.565	14.9288	-3.21244	192.583	27.6662	18.9981	224.463	49.5171	26.7298	216.993	46.2971	50.4521	206.321	69.5898	33.6522	
251	2.09167	178.805	70.7316	28.1347	165.908	58.7088	1.58639	164.798	48.4601	-20.5338	172.08	29.9827	-40.323	217.211	77.6724	-20.9776	223.093	77.3671	-46.374	229.608	72.0978	-69.2307	209.673	52.5905	-29.616	182.343	39.4776	-33.2161	178.871	45.9571	-2.91544	205.702	32.3947	-21.8998	180.364	25.2014	-15.5139	184.644	36.8537	11.6606	207.797	15.7057	-13.0014	183.945	19.9897	-5.42861	187.605	32.9557	17.4964	227.767	43.5773	22.7575	220.013	38.6329	48.7207	214.274	66.0697	32.5203	
252	2.1	190.348	73.8444	27.3316	174.318	67.4656	-3.19379	169.428	55.6869	-22.7352	169.069	37.3813	-34.9974	229.065	62.9064	-23.1221	230.512	61.8386	-49.4282	229.316	60.3558	-74.077	212.329	44.9993	-30.6315	184.327	40.7104	-35.1034	185.297	51.0197	-1.28209	203.331	28.912	-21.5831	177.068	31.5552	-16.1257	184.412	41.1201	11.7461	201.204	17.4192	-13.0372	178.034	22.4855	-6.20173	184.577	33.1245	17.3909	228.179	30.3851	23.9482	220.48	31.4387	50.2541	224.013	57.2987	33.1481	
253	2.10833	202.721	73.7587	24.1981	183.157	70.7616	1.01324	174.601	60.3299	-25.6019	167.833	42.5468	-39.3913	233.932	56.0169	-27.1758	230.604	52.3192	-52.1723	222.812	51.1678	-72.5299	213.933	40.7103	-30.9419	183.401	43.5243	-32.5815	187.869	53.6949	-1.69175	199.881	23.9576	-22.5258	178.532	36.1094	-17.2928	185.574	44.7011	10.1011	194.728	11.938	-11.0063	176.368	26.6247	-8.72669	183.313	37.5202	16.0356	224.457	22.8329	22.0187	222.304	30.0157	50.0942	230.165	49.5224	32.9838	
254	2.11667	209.393	69.8921	27.1024	190.15	70.0009	-0.0845497	181.1	62.0497	-21.3104	172.112	43.5591	-34.5783	234.376	43.571	-30.9369	226.984	42.18	-51.4895	211.24	47.6715	-76.1286	215.028	34.729	-30.4722	186.176	44.4656	-34.0725	191.216	51.8337	-1.38796	198.573	22.3019	-22.247	178.226	39.4951	-16.8325	187.947	45.1513	10.4712	189.628	9.46134	-10.995	177.487	32.8618	-6.53807	186.788	38.3421	13.7055	222.403	15.3549	25.5849	222.544	25.5433	47.9624	232.903	45.2322	33.0957	
255	2.125	215.113	69.8333	28.2816	196.657	71.2391	-2.65827	184.67	66.7603	-23.7017	172.304	49.4081	-39.0134	235.292	40.3821	-27.5005	224.977	40.2114	-54.2126	202.974	47.5554	-71.7191	214.182	29.7673	-31.8076	188.019	41.6762	-35.4708	187.862	51.0207	-6.32496	199.58	19.5024	-19.2998	177.798	39.7908	-14.7634	187.018	45.7719	8.14903	187.677	8.63222	-9.55397	175.509	31.0562	-5.36288	187.108	39.7054	13.6833	221.465	13.0708	22.8462	220.965	21.9075	52.427	234.933	41.5109	30.8649	
256	2.13333	219.444	64.3144	25.3764	200.406	69.6768	0.0332947	190.281	65.642	-21.3416	178.662	54.4485	-34.5814	233.023	34.7008	-29.233	223.077	37.4611	-52.6228	198.882	48.1031	-63.7005	214.647	23.6528	-28.5327	188.24	38.4066	-35.958	188.72	52.5361	-5.86835	198.856	21.0465	-22.8857	177.957	34.9286	-16.707	185.46	46.1406	7.55285	186.381	9.35022	-10.6983	177.52	31.6106	-6.07731	184.077	40.2415	12.9259	223.325	12.5249	24.6842	223.753	18.8083	50.2768	236.142	34.0482	34.7074	
257	2.14167	222.963	65.92	29.5416	204.913	68.6982	3.5876	193.756	69.0683	-17.9241	182.44	56.9748	-35.3741	234.39	35.1661	-30.4196	214.878	36.248	-51.671	194.711	51.2889	-55.2099	216.278	25.1744	-30.9657	191.133	38.5523	-37.5675	187.49	51.5306	-6.66562	199.846	18.1374	-21.5263	179.59	36.3946	-17.626	186.143	46.8083	5.8926	188.133	7.05179	-8.65659	175.818	26.1483	-10.2781	181.935	40.9894	12.2156	221.387	8.45411	23.21	223.288	14.6704	50.9514	236.633	32.475	34.705	
258	2.15	223.835	62.4291	31.6191	208.55	72.2771	1.38059	197.816	69.2823	-17.7786	184.499	61.0853	-36.793	233.502	30.7098	-27.0072	213.399	37.2296	-50.062	194.32	52.1255	-46.4277	212.931	20.8602	-28.3382	189.875	41.8242	-36.1684	188.292	52.2392	-5.8158	195.161	13.7854	-21.5515	179.686	36.5478	-19.379	186.672	45.1447	7.78105	192.056	3.71606	-6.05948	173.694	21.0852	-15.6095	177.7	42.1523	-0.603417	222.883	7.0519	26.1454	220.147	10.974	51.0148	239.656	30.2766	33.3841	
259	2.15833	226.34	61.4199	30.825	209.524	67.8239	3.9556	200.49	68.7338	-16.4843	188.267	65.8886	-34.4602	234.585	32.3961	-30.1465	214.761	40.7925	-47.6844	195.402	60.2322	-35.6426	210.821	21.2298	-30.3977	192.126	41.951	-35.5328	186.35	50.7419	-6.02831	201.044	14.334	-19.979	181.814	32.0605	-21.5079	187.356	46.2051	2.70313	190.959	-3.14689	-8.16142	176.866	13.0683	-23.5971	171.642	34.0051	-21.7723	221.217	3.61362	24.7251	218.957	11.0303	54.259	239.554	31.6225	35.4591	
260	2.16667	226.441	62.6293	31.5641	210.761	69.8054	7.44092	202.16	72.7335	-16.7869	189.967	70.3895	-37.5452	230.98	30.9133	-30.2739	211.783	40.5351	-44.9165	197.833	60.603	-24.5093	214.227	21.8586	-26.8047	190.671	40.4683	-35.0971	189.662	52.5274	-4.28107	200.242	14.8392	-21.127	182.825	35.4883	-22.213	186.915	46.24	3.96501	193.132	-6.66194	-7.46291	181.781	-0.889556	-25.1112	171.079	16.0831	-35.6118	219.431	5.88521	27.891	220.886	12.6081	53.0787	239.122	26.8941	31.8098	
261	2.175	225.982	60.559	32.0966	210.963	69.8222	2.79221	201.763	69.382	-20.3026	190.461	64.8047	-37.3369	231	35.3422	-29.8087	212.261	49.1325	-44.3977	197.996	60.8365	-19.0149	214.021	25.4646	-30.8649	189.257	40.9685	-32.2298	192.962	53.0081	-0.628084	199.374	14.6358	-23.2267	181.448	32.3593	-23.3382	187.866	46.2922	4.06465	197.671	-4.60787	-3.31265	187.24	-8.22503	-25.4585	179.119	2.77934	-45.8641	221.266	5.74998	24.8558	222.765	14.9553	50.8523	238.247	29.9099	32.8586	
262	2.18333	225.562	62.6783	28.2537	208.759	73.1327	6.48572	201.047	75.6223	-17.4179	189.261	69.668	-36.7294	229.153	39.8868	-32.303	206.967	49.5865	-39.8951	195.775	61.0181	-14.152	211.665	25.1114	-29.3485	187.881	43.7767	-30.2518	191.285	50.9876	-0.808272	201.708	14.7493	-21.3272	183.319	35.9949	-22.2195	185.398	44.2844	5.47287	199.782	-5.62221	-5.3569	195.397	-10.5369	-23.6793	189.159	-11.6796	-41.5778	219.575	6.5392	27.8831	223.022	12.4293	51.3633	239.313	29.2585	30.5507	
263	2.19167	222.601	63.8417	27.6973	206.353	72.999	4.45819	197.595	72.8239	-20.5114	187.316	71.8149	-37.7534	229.891	43.8863	-31.3013	206.687	57.0588	-39.5126	195.114	64.5069	-15.3506	214.248	27.0336	-27.7345	190.309	43.0541	-32.4786	192.139	54.4887	-0.605604	203.675	16.6099	-23.0418	181.192	33.333	-22.9312	183.496	42.7426	3.22681	203.243	-5.36294	-3.48305	200.743	-10.5347	-23.2131	201.937	-16.4223	-40.0646	222.821	10.15	26.6511	223.832	15.3155	52.0364	236.941	34.884	33.8384	
264	2.2	218.834	69.1955	33.2752	201.771	73.0344	8.1996	193.525	73.9403	-18.9933	183.864	70.1978	-33.8653	228.56	47.0856	-30.1324	207.115	58.374	-38.2533	192.528	62.1091	-13.6464	215.04	30.0047	-28.4593	188.866	43.548	-31.2172	190.766	51.7753	2.29035	205.457	15.4753	-21.5084	185.287	35.6505	-23.2695	186.295	40.893	6.50516	209.677	-2.30953	-4.16594	210.071	-9.28839	-22.7155	213.04	-15.7892	-42.173	223.038	10.1142	28.0603	224.316	18.0408	49.7014	236.679	37.9221	34.8997	
